<?xml version="1.0" encoding="UTF-8"?>
<svg version="1.1" xmlns="http://www.w3.org/2000/svg" width="522" height="436">
<path d="M0 0 C69.73290254 -0.28231944 69.73290254 -0.28231944 98.83398438 -0.34179688 C105.49503703 -0.35550203 112.15608853 -0.36964541 118.81713867 -0.38452148 C119.65199529 -0.38636773 120.48685191 -0.38821397 121.34700722 -0.39011616 C134.82599554 -0.4205632 148.30477487 -0.47575072 161.78363926 -0.54006957 C175.61614182 -0.60552552 189.44853496 -0.64441043 203.28118604 -0.65861946 C211.81711901 -0.66822545 220.35246152 -0.6985661 228.88821273 -0.75541527 C234.74116149 -0.79241143 240.59380491 -0.80360212 246.44686211 -0.79450964 C249.82448351 -0.79002454 253.20024124 -0.80072838 256.57782173 -0.83443832 C260.24147383 -0.8692147 263.90258995 -0.86091433 267.56629944 -0.84178162 C268.63148412 -0.86217151 269.69666881 -0.8825614 270.79413182 -0.90356916 C276.19063511 -0.82727322 279.1976458 -0.42242737 283.08960629 3.49011135 C284.06029986 4.65960772 285.03054142 5.82947967 286 7 C286.66 7.33 287.32 7.66 288 8 C288 8.66 288 9.32 288 10 C288.66 10 289.32 10 290 10 C290 10.66 290 11.32 290 12 C290.87398438 12.38285156 290.87398438 12.38285156 291.765625 12.7734375 C294.21388223 14.11741087 295.81743248 15.61810296 297.75 17.625 C298.36359375 18.25664063 298.9771875 18.88828125 299.609375 19.5390625 C300.06828125 20.02117188 300.5271875 20.50328125 301 21 C300.67 21.99 300.34 22.98 300 24 C211.23 24 122.46 24 31 24 C31 90.66 31 157.32 31 226 C36.94 226 42.88 226 49 226 C48.99777939 223.67199844 48.99555878 221.34399689 48.99327087 218.94544983 C48.97287204 197.06285076 48.95797091 175.18025295 48.94818783 153.29764652 C48.94302427 142.04616484 48.93598044 130.79469011 48.92456055 119.54321289 C48.91461553 109.7402146 48.90814701 99.93722135 48.90591151 90.13421816 C48.90460409 84.94019633 48.90151629 79.74618893 48.89426994 74.55217171 C48.88751259 69.66936779 48.88538245 64.78658432 48.88689232 59.90377617 C48.88661586 58.10619369 48.88460905 56.30861056 48.88079453 54.5110321 C48.87586172 52.06784038 48.87700017 49.62472713 48.87974548 47.18153381 C48.87683264 46.46073027 48.8739198 45.73992673 48.87091869 44.99728066 C48.88587879 40.11412121 48.88587879 40.11412121 50 39 C51.43160176 38.90248979 52.8679978 38.87444553 54.30291653 38.87415886 C55.23722419 38.87155111 56.17153186 38.86894336 57.13415188 38.86625659 C58.17264894 38.86848732 59.211146 38.87071804 60.28111267 38.87301636 C61.92186566 38.87067637 61.92186566 38.87067637 63.59576517 38.86828911 C67.29164002 38.86427392 70.98747439 38.86747077 74.68334961 38.87060547 C77.32061383 38.86925165 79.95787518 38.86750824 82.59513855 38.86529541 C89.03332246 38.8608369 95.47149474 38.86181458 101.90967911 38.86470805 C107.14037972 38.86696196 112.37107707 38.86727466 117.60177803 38.86618423 C118.34486191 38.866031 119.08794578 38.86587777 119.85354735 38.86571989 C121.36289036 38.86540018 122.87223336 38.86507597 124.38157637 38.8647473 C138.55204261 38.86189222 152.7225024 38.86517987 166.89296759 38.87054767 C179.0626815 38.87501481 191.23238587 38.87424057 203.40209961 38.86962891 C217.51862179 38.86428205 231.63513831 38.86216789 245.75166136 38.86524117 C247.25590964 38.86555973 248.76015792 38.8658741 250.2644062 38.86618423 C251.00461134 38.86633851 251.74481648 38.86649279 252.50745208 38.86665174 C257.73383538 38.86751663 262.96021509 38.86605459 268.18659782 38.86370468 C274.55307463 38.86090521 280.9195391 38.86164802 287.28601449 38.86698543 C290.53683009 38.86962059 293.78762075 38.87009583 297.03843689 38.86733627 C300.55628004 38.86462435 304.07406434 38.86800648 307.59190369 38.87301636 C308.62817003 38.87078564 309.66443637 38.86855491 310.73210472 38.86625659 C311.66902013 38.86886434 312.60593554 38.87147209 313.57124233 38.87415886 C314.38406121 38.87432121 315.19688008 38.87448356 316.03432983 38.87465084 C318 39 318 39 320 40 C320 104.02 320 168.04 320 234 C330.23 234 340.46 234 351 234 C351 230.7 351 227.4 351 224 C351.33 223.34 351.66 222.68 352 222 C359.80575195 221.97687208 367.61149595 221.95908262 375.41727352 221.94818783 C379.0414596 221.94295998 382.6656223 221.93586413 386.28979492 221.92456055 C389.78459975 221.91372816 393.27938204 221.90772242 396.77420235 221.90512276 C398.76239389 221.90236449 400.75057631 221.89455312 402.73875427 221.88670349 C403.93992386 221.88662796 405.14109344 221.88655243 406.37866211 221.88647461 C407.44233505 221.884254 408.506008 221.88203339 409.60191345 221.87974548 C412 222 412 222 413 223 C413.09893778 224.77446009 413.12799092 226.55286251 413.12939453 228.33007812 C413.13254669 229.46795776 413.13569885 230.6058374 413.13894653 231.77819824 C413.13591019 233.63595886 413.13591019 233.63595886 413.1328125 235.53125 C413.13424759 237.42333191 413.13424759 237.42333191 413.13571167 239.3536377 C413.13639375 242.02697138 413.13503529 244.70021437 413.13037109 247.37353516 C413.12467381 250.80706691 413.12795301 254.2405205 413.13394356 257.67404938 C413.13841762 260.93895243 413.13528883 264.20384593 413.1328125 267.46875 C413.13483673 268.70725708 413.13686096 269.94576416 413.13894653 271.22180176 C413.13579437 272.3596814 413.13264221 273.49756104 413.12939453 274.66992188 C413.12820114 276.18096497 413.12820114 276.18096497 413.12698364 277.72253418 C413 280 413 280 412 281 C410.41580847 281.09858476 408.82724566 281.12798738 407.23999023 281.12939453 C406.2248082 281.13254669 405.20962616 281.13569885 404.16368103 281.13894653 C402.50291283 281.13591019 402.50291283 281.13591019 400.80859375 281.1328125 C399.10788475 281.13424759 399.10788475 281.13424759 397.37281799 281.13571167 C394.9642837 281.13639408 392.55574759 281.13453561 390.1472168 281.13037109 C386.47765904 281.12505814 382.80822562 281.1302961 379.13867188 281.13671875 C376.7994789 281.1360573 374.460286 281.13477476 372.12109375 281.1328125 C371.02808456 281.13483673 369.93507538 281.13686096 368.8089447 281.13894653 C353.09118076 281.09118076 353.09118076 281.09118076 351 279 C350.91368126 277.65732587 350.89293527 276.31025678 350.90234375 274.96484375 C350.90556641 274.15595703 350.90878906 273.34707031 350.91210938 272.51367188 C350.92048828 271.66353516 350.92886719 270.81339844 350.9375 269.9375 C350.94201172 269.08349609 350.94652344 268.22949219 350.95117188 267.34960938 C350.96299627 265.23304337 350.98093231 263.11651315 351 261 C349.85701195 261.00333092 349.85701195 261.00333092 348.69093323 261.00672913 C341.52448288 261.02673157 334.35804599 261.04197388 327.19157505 261.05181217 C323.50685502 261.05704008 319.82215797 261.06413605 316.13745117 261.07543945 C312.58429169 261.08627162 309.03115437 261.09227753 305.47797966 261.09487724 C304.11954334 261.0967309 302.76110829 261.10035038 301.40268135 261.10573006 C299.50617777 261.11294475 297.60965207 261.11340809 295.71313477 261.11352539 C294.63169693 261.115746 293.55025909 261.11796661 292.43605042 261.12025452 C290 261 290 261 289 260 C288.90227712 257.50847885 288.87003968 255.04468924 288.87974548 252.55271912 C288.87888947 251.76565079 288.87803345 250.97858246 288.87715149 250.16766357 C288.87548617 247.50164582 288.88103626 244.83568982 288.88647461 242.16967773 C288.8867807 240.23718041 288.88664787 238.30468298 288.88610935 236.37218571 C288.88588278 231.17805874 288.8916956 225.98395462 288.89871979 220.78983307 C288.90439769 215.92307968 288.90468198 211.05633196 288.90539551 206.1895752 C288.91065129 191.93888041 288.92461232 177.68818992 288.9375 163.4375 C288.958125 131.613125 288.97875 99.78875 289 67 C220.03 67 151.06 67 80 67 C80 128.38 80 189.76 80 253 C74.02085091 253.59791491 68.57550132 254.1254015 62.65429688 254.12939453 C61.66206116 254.13202301 61.66206116 254.13202301 60.64978027 254.13470459 C58.50607529 254.13903663 56.36245553 254.13621896 54.21875 254.1328125 C52.71325668 254.13348739 51.20776346 254.13445895 49.70227051 254.13571167 C46.56908109 254.13717633 43.43592042 254.13507159 40.30273438 254.13037109 C36.28327945 254.12463487 32.26389075 254.12798497 28.24443817 254.13394356 C25.1458689 254.13754897 22.04731547 254.13641136 18.94874573 254.13381577 C17.46554049 254.13314848 15.98233381 254.13396802 14.49913025 254.13629532 C12.43622991 254.13882576 10.37343902 254.13497755 8.31054688 254.12939453 C7.13713745 254.12859894 5.96372803 254.12780334 4.75476074 254.12698364 C2 254 2 254 0 253 C0 169.51 0 86.02 0 0 Z M373 243 C372.979375 245.619375 372.95875 248.23875 372.9375 250.9375 C372.928396 251.7637085 372.91929199 252.58991699 372.90991211 253.44116211 C372.90276055 255.29433759 372.9497148 257.14749308 373 259 C374.21428988 260.44388571 374.21428988 260.44388571 377.81640625 260.09765625 C379.39847047 260.09191138 380.98051031 260.07889593 382.5625 260.0625 C385.346875 260.041875 388.13125 260.02125 391 260 C391 254.39 391 248.78 391 243 C385.06 243 379.12 243 373 243 Z " fill="#2B4796" transform="translate(100,42)"/>
<path d="M0 0 C1.70209877 0.00333092 1.70209877 0.00333092 3.43858337 0.00672913 C4.71983597 0.00680466 6.00108856 0.00688019 7.32116699 0.00695801 C8.73001646 0.01206542 10.13886554 0.01728143 11.54771423 0.02259827 C12.98118033 0.02446249 14.41464706 0.02588637 15.84811401 0.02688599 C19.62765755 0.03071079 23.40716288 0.04054075 27.18669128 0.05158997 C31.04075097 0.06180489 34.8948168 0.06638378 38.74888611 0.07142639 C46.31596085 0.08216306 53.88300407 0.09923903 61.45005798 0.12025452 C62.48595998 5.17027673 62.55257471 9.99441841 62.45005798 15.12025452 C63.73822922 15.11803391 65.02640045 15.11581329 66.35360718 15.11352539 C78.46468255 15.09329633 90.57575452 15.07828352 102.68684292 15.06844234 C108.91399271 15.06321292 115.14112891 15.05611419 121.36827087 15.04481506 C127.37232663 15.0339883 133.37636928 15.02797813 139.38043404 15.02537727 C141.67667408 15.02352264 143.97291337 15.01990131 146.26914787 15.01452446 C149.47326612 15.00731684 152.67732948 15.00626346 155.88145447 15.00672913 C157.32075066 15.00133621 157.32075066 15.00133621 158.78912354 14.99583435 C159.65715607 14.99720901 160.5251886 14.99858368 161.41952515 15 C162.17816077 14.99907821 162.9367964 14.99815641 163.71842098 14.99720669 C165.45005798 15.12025452 165.45005798 15.12025452 166.45005798 16.12025452 C166.45005798 43.84025452 166.45005798 71.56025452 166.45005798 100.12025452 C235.09005798 100.12025452 303.73005798 100.12025452 374.45005798 100.12025452 C374.45005798 79.00025452 374.45005798 57.88025452 374.45005798 36.12025452 C374.78005798 31.50025452 375.11005798 26.88025452 375.45005798 22.12025452 C378.20360758 20.74347972 380.43846208 20.99055763 383.51646423 20.98744202 C384.72367126 20.98615295 385.9308783 20.98486389 387.17466736 20.98353577 C388.44117126 20.98740295 389.70767517 20.99127014 391.01255798 20.99525452 C392.28292908 20.99138733 393.55330017 20.98752014 394.86216736 20.98353577 C396.67104431 20.98546936 396.67104431 20.98546936 398.51646423 20.98744202 C399.62965027 20.98856995 400.7428363 20.98969788 401.88975525 20.99085999 C404.45005798 21.12025452 404.45005798 21.12025452 405.45005798 22.12025452 C405.55961934 23.48129344 405.60127471 24.84788432 405.61500549 26.21325684 C405.62623947 27.09522736 405.63747345 27.97719788 405.64904785 28.88589478 C405.65637436 29.86098495 405.66370087 30.83607513 405.67124939 31.8407135 C405.68275528 32.86177185 405.69426117 33.8828302 405.70611572 34.93482971 C405.74296294 38.32863805 405.77251022 41.72246535 405.80162048 45.11634827 C405.82472062 47.46425658 405.84811079 49.81216206 405.8717804 52.1600647 C405.92031425 57.08890904 405.96523453 62.01777007 406.00767517 66.94667053 C406.06248218 73.27682928 406.1263074 79.606859 406.19285011 85.93690395 C406.24283789 90.78801322 406.28800046 95.63915813 406.33169174 100.49032784 C406.35331542 102.82482917 406.37647128 105.15931681 406.40115738 107.49378777 C406.43490496 110.75263759 406.46216171 114.0114776 406.48765564 117.270401 C406.49903061 118.24346695 406.51040558 119.2165329 406.52212524 120.21908569 C406.52771957 121.10387604 406.5333139 121.98866638 406.53907776 122.90026855 C406.54607508 123.67143226 406.5530724 124.44259596 406.56028175 125.23712826 C406.45005798 127.12025452 406.45005798 127.12025452 405.45005798 129.12025452 C316.35005798 129.12025452 227.25005798 129.12025452 135.45005798 129.12025452 C135.45005798 100.41025452 135.45005798 71.70025452 135.45005798 42.12025452 C111.36005798 42.12025452 87.27005798 42.12025452 62.45005798 42.12025452 C62.45005798 47.40025452 62.45005798 52.68025452 62.45005798 58.12025452 C61.45005798 59.12025452 61.45005798 59.12025452 58.8621521 59.24050903 C57.70965469 59.23828842 56.55715729 59.23606781 55.36973572 59.23377991 C53.4178257 59.23366661 53.4178257 59.23366661 51.42648315 59.23355103 C49.99553897 59.2284436 48.56459516 59.2232276 47.13365173 59.21791077 C45.67776538 59.21604655 44.22187841 59.21462266 42.76599121 59.21362305 C38.92726419 59.20979817 35.08857479 59.19996816 31.24986267 59.18891907 C27.33547983 59.17870429 23.42109093 59.17412529 19.50669861 59.16908264 C11.82113455 59.15834585 4.13560153 59.14126981 -3.54994202 59.12025452 C-3.57307053 51.57527219 -3.5908597 44.03029351 -3.60175419 36.48528385 C-3.6069819 32.98216567 -3.61407752 29.47907167 -3.62538147 25.97596741 C-3.63828407 21.95244611 -3.64317113 17.92895038 -3.64759827 13.90541077 C-3.65534019 12.0101339 -3.65534019 12.0101339 -3.66323853 10.0765686 C-3.66331406 8.91544052 -3.66338959 7.75431244 -3.66346741 6.55799866 C-3.66679832 5.01578392 -3.66679832 5.01578392 -3.67019653 3.44241333 C-3.50070295 0.16943009 -3.28932572 0.15512363 0 0 Z M20.45005798 22.12025452 C20.45005798 27.73025452 20.45005798 33.34025452 20.45005798 39.12025452 C26.39005798 39.12025452 32.33005798 39.12025452 38.45005798 39.12025452 C38.47068298 36.33587952 38.49130798 33.55150452 38.51255798 30.68275452 C38.52166199 29.80433899 38.53076599 28.92592346 38.54014587 28.02088928 C38.54728889 26.05379477 38.50037691 24.08671831 38.45005798 22.12025452 C37.44444683 20.89475929 37.44444683 20.89475929 35.41099548 20.98744202 C34.13095642 20.9913092 34.13095642 20.9913092 32.82505798 20.99525452 C31.98716736 20.99267639 31.14927673 20.99009827 30.28599548 20.98744202 C26.98929004 21.14183318 23.71720679 21.65351897 20.45005798 22.12025452 Z " fill="#2C4798" transform="translate(13.549942016601563,297.87974548339844)"/>
<path d="M0 0 C70.07347837 -0.44364484 70.07347837 -0.44364484 99.34960938 -0.53710938 C106.05037734 -0.55864508 112.75114249 -0.58087012 119.4519043 -0.60424805 C120.71160354 -0.6085999 120.71160354 -0.6085999 121.99675125 -0.61303967 C135.5443205 -0.6608467 149.09137474 -0.74754804 162.63863889 -0.84868076 C176.54798252 -0.95164831 190.45705705 -1.01266754 204.36676615 -1.03497344 C212.94605777 -1.05004676 221.52389424 -1.09760089 230.10273775 -1.18708114 C235.99038452 -1.24535273 241.87728217 -1.26277371 247.76519618 -1.24851515 C251.1604412 -1.24148602 254.55111117 -1.25809381 257.94624901 -1.31126022 C280.47600771 -1.64671567 280.47600771 -1.64671567 286.66017884 3.9736864 C288.66166309 6.17005498 290.34621406 8.53555755 292 11 C292.66 11.33 293.32 11.66 294 12 C294 12.66 294 13.32 294 14 C294.5775 14.2475 295.155 14.495 295.75 14.75 C298.34908658 16.19393699 300.07836838 17.73521987 302 20 C302 20.99 302 21.98 302 23 C210.92 23 119.84 23 26 23 C26.03962309 104.57214683 26.03962309 104.57214683 26.09008789 186.14428711 C26.09460449 201.88195801 26.09460449 201.88195801 26.09544373 209.23756409 C26.09637949 214.40085712 26.10006125 219.56414238 26.10557556 224.72743225 C26.11258451 231.29986922 26.1144977 237.87229418 26.11307228 244.44473565 C26.11337064 246.86535225 26.11537417 249.28596933 26.11921513 251.7065829 C26.12413944 254.95931007 26.12300829 258.21197809 26.12025452 261.46470642 C26.12316718 262.42647576 26.12607985 263.38824511 26.12908077 264.37915897 C26.11412483 270.88587517 26.11412483 270.88587517 25 272 C16.75 272 8.5 272 0 272 C0 182.24 0 92.48 0 0 Z " fill="#3D57A1" transform="translate(58,6)"/>
<path d="M0 0 C0.65053848 -0.00335861 1.30107697 -0.00671722 1.97132874 -0.01017761 C4.13512047 -0.01972151 6.29883497 -0.02163311 8.46264648 -0.02270508 C9.96662935 -0.0259177 11.47061191 -0.02928178 12.97459412 -0.03279114 C16.13639041 -0.03879268 19.29815935 -0.04063023 22.45996094 -0.04003906 C26.49594865 -0.03993793 30.53175848 -0.05353425 34.5677042 -0.07081127 C37.67940563 -0.08198188 40.79106493 -0.08395664 43.90278435 -0.08342934 C45.38940984 -0.08460399 46.87603661 -0.08899665 48.36264229 -0.0967617 C63.99767444 -0.17071483 75.79874011 2.53716119 87.50170898 13.53979492 C96.44027022 23.80144784 97.47044002 35.13237883 96.77124023 48.14526367 C95.17661855 59.6724865 90.1686351 67.87546666 81.33374023 75.35229492 C71.9463082 81.92063533 61.99273062 83.33108552 50.83374023 83.20776367 C48.17311523 83.18713867 45.51249023 83.16651367 42.77124023 83.14526367 C42.77124023 94.03526367 42.77124023 104.92526367 42.77124023 116.14526367 C26.27124023 116.14526367 9.77124023 116.14526367 -7.22875977 116.14526367 C-7.25130745 101.16839774 -7.26973933 86.19154046 -7.28057194 71.2146616 C-7.28573473 64.26110287 -7.2927771 57.30755541 -7.30419922 50.35400391 C-7.31520671 43.64969158 -7.32103597 36.94539342 -7.32363701 30.2410717 C-7.32549179 27.67688754 -7.3291134 25.11270405 -7.33448982 22.54852486 C-7.34169636 18.97081209 -7.34275087 15.39314849 -7.34228516 11.81542969 C-7.34588043 10.74369003 -7.34947571 9.67195038 -7.35317993 8.56773376 C-7.35180527 7.59873138 -7.3504306 6.629729 -7.34901428 5.63136292 C-7.34993608 4.78423516 -7.35085787 3.93710741 -7.35180759 3.06430912 C-7.07773164 -1.21016055 -3.51670671 0.01134417 0 0 Z M10.77124023 16.14526367 C10.77124023 32.31526367 10.77124023 48.48526367 10.77124023 65.14526367 C17.87028584 65.2373594 24.96723807 65.3169222 32.06640625 65.36499023 C34.47858729 65.3850392 36.89072013 65.4122856 39.30273438 65.44702148 C42.78063896 65.49583418 46.25789795 65.5183005 49.73608398 65.53588867 C51.33975075 65.56685638 51.33975075 65.56685638 52.97581482 65.59844971 C59.79543382 65.60046893 64.79726751 64.47410435 70.77124023 61.14526367 C70.77124023 60.48526367 70.77124023 59.82526367 70.77124023 59.14526367 C71.38612305 58.88616211 72.00100586 58.62706055 72.63452148 58.36010742 C76.30484022 56.27332657 77.43215187 53.02988323 78.77124023 49.14526367 C80.67494817 40.51426353 79.64222713 32.93024183 75.08374023 25.33276367 C66.28216783 17.00695194 56.79274599 15.82012495 45.04858398 15.94995117 C44.17302856 15.95196533 43.29747314 15.95397949 42.39538574 15.95605469 C39.16644959 15.96641326 35.9375889 15.99433467 32.70874023 16.02026367 C25.46936523 16.06151367 18.22999023 16.10276367 10.77124023 16.14526367 Z M10.77124023 73.14526367 C10.77124023 81.72526367 10.77124023 90.30526367 10.77124023 99.14526367 C14.02593038 100.23016039 16.47667232 100.27850359 19.89624023 100.27026367 C20.97131836 100.2728418 22.04639648 100.27541992 23.15405273 100.27807617 C25.6978042 100.44215343 25.6978042 100.44215343 26.77124023 99.14526367 C26.87034118 97.6426689 26.90203725 96.13549656 26.90405273 94.62963867 C26.9053418 93.70795898 26.90663086 92.7862793 26.90795898 91.83666992 C26.9021582 90.38067383 26.9021582 90.38067383 26.89624023 88.89526367 C26.90010742 87.94006836 26.90397461 86.98487305 26.90795898 86.00073242 C26.90602539 84.61047852 26.90602539 84.61047852 26.90405273 83.19213867 C26.9029248 82.34490234 26.90179688 81.49766602 26.90063477 80.62475586 C26.80810603 77.70235704 26.80810603 77.70235704 25.77124023 73.14526367 C20.82124023 73.14526367 15.87124023 73.14526367 10.77124023 73.14526367 Z " fill="#455EA4" transform="translate(246.228759765625,194.854736328125)"/>
<path d="M0 0 C69.73290254 -0.28231944 69.73290254 -0.28231944 98.83398438 -0.34179688 C105.49503703 -0.35550203 112.15608853 -0.36964541 118.81713867 -0.38452148 C119.65199529 -0.38636773 120.48685191 -0.38821397 121.34700722 -0.39011616 C134.82599554 -0.4205632 148.30477487 -0.47575072 161.78363926 -0.54006957 C175.61614182 -0.60552552 189.44853496 -0.64441043 203.28118604 -0.65861946 C211.81711901 -0.66822545 220.35246152 -0.6985661 228.88821273 -0.75541527 C234.74116149 -0.79241143 240.59380491 -0.80360212 246.44686211 -0.79450964 C249.82448351 -0.79002454 253.20024124 -0.80072838 256.57782173 -0.83443832 C260.24147383 -0.8692147 263.90258995 -0.86091433 267.56629944 -0.84178162 C268.63148412 -0.86217151 269.69666881 -0.8825614 270.79413182 -0.90356916 C276.19063511 -0.82727322 279.1976458 -0.42242737 283.08960629 3.49011135 C284.06029986 4.65960772 285.03054142 5.82947967 286 7 C286.66 7.33 287.32 7.66 288 8 C288 8.66 288 9.32 288 10 C288.66 10 289.32 10 290 10 C290 10.66 290 11.32 290 12 C290.87398438 12.38285156 290.87398438 12.38285156 291.765625 12.7734375 C294.21388223 14.11741087 295.81743248 15.61810296 297.75 17.625 C298.36359375 18.25664063 298.9771875 18.88828125 299.609375 19.5390625 C300.06828125 20.02117188 300.5271875 20.50328125 301 21 C300.67 21.99 300.34 22.98 300 24 C211.23 24 122.46 24 31 24 C31 90.66 31 157.32 31 226 C36.94 226 42.88 226 49 226 C48.99777939 223.67199844 48.99555878 221.34399689 48.99327087 218.94544983 C48.97287204 197.06285076 48.95797091 175.18025295 48.94818783 153.29764652 C48.94302427 142.04616484 48.93598044 130.79469011 48.92456055 119.54321289 C48.91461553 109.7402146 48.90814701 99.93722135 48.90591151 90.13421816 C48.90460409 84.94019633 48.90151629 79.74618893 48.89426994 74.55217171 C48.88751259 69.66936779 48.88538245 64.78658432 48.88689232 59.90377617 C48.88661586 58.10619369 48.88460905 56.30861056 48.88079453 54.5110321 C48.87586172 52.06784038 48.87700017 49.62472713 48.87974548 47.18153381 C48.87683264 46.46073027 48.8739198 45.73992673 48.87091869 44.99728066 C48.88587879 40.11412121 48.88587879 40.11412121 50 39 C51.43160176 38.90248979 52.8679978 38.87444553 54.30291653 38.87415886 C55.23722419 38.87155111 56.17153186 38.86894336 57.13415188 38.86625659 C58.17264894 38.86848732 59.211146 38.87071804 60.28111267 38.87301636 C61.92186566 38.87067637 61.92186566 38.87067637 63.59576517 38.86828911 C67.29164002 38.86427392 70.98747439 38.86747077 74.68334961 38.87060547 C77.32061383 38.86925165 79.95787518 38.86750824 82.59513855 38.86529541 C89.03332246 38.8608369 95.47149474 38.86181458 101.90967911 38.86470805 C107.14037972 38.86696196 112.37107707 38.86727466 117.60177803 38.86618423 C118.34486191 38.866031 119.08794578 38.86587777 119.85354735 38.86571989 C121.36289036 38.86540018 122.87223336 38.86507597 124.38157637 38.8647473 C138.55204261 38.86189222 152.7225024 38.86517987 166.89296759 38.87054767 C179.0626815 38.87501481 191.23238587 38.87424057 203.40209961 38.86962891 C217.51862179 38.86428205 231.63513831 38.86216789 245.75166136 38.86524117 C247.25590964 38.86555973 248.76015792 38.8658741 250.2644062 38.86618423 C251.00461134 38.86633851 251.74481648 38.86649279 252.50745208 38.86665174 C257.73383538 38.86751663 262.96021509 38.86605459 268.18659782 38.86370468 C274.55307463 38.86090521 280.9195391 38.86164802 287.28601449 38.86698543 C290.53683009 38.86962059 293.78762075 38.87009583 297.03843689 38.86733627 C300.55628004 38.86462435 304.07406434 38.86800648 307.59190369 38.87301636 C308.62817003 38.87078564 309.66443637 38.86855491 310.73210472 38.86625659 C311.66902013 38.86886434 312.60593554 38.87147209 313.57124233 38.87415886 C314.38406121 38.87432121 315.19688008 38.87448356 316.03432983 38.87465084 C318 39 318 39 320 40 C320 104.02 320 168.04 320 234 C330.23 234 340.46 234 351 234 C351 230.7 351 227.4 351 224 C351.33 223.34 351.66 222.68 352 222 C359.80575195 221.97687208 367.61149595 221.95908262 375.41727352 221.94818783 C379.0414596 221.94295998 382.6656223 221.93586413 386.28979492 221.92456055 C389.78459975 221.91372816 393.27938204 221.90772242 396.77420235 221.90512276 C398.76239389 221.90236449 400.75057631 221.89455312 402.73875427 221.88670349 C403.93992386 221.88662796 405.14109344 221.88655243 406.37866211 221.88647461 C407.44233505 221.884254 408.506008 221.88203339 409.60191345 221.87974548 C412 222 412 222 413 223 C413.09893778 224.77446009 413.12799092 226.55286251 413.12939453 228.33007812 C413.13254669 229.46795776 413.13569885 230.6058374 413.13894653 231.77819824 C413.13591019 233.63595886 413.13591019 233.63595886 413.1328125 235.53125 C413.13424759 237.42333191 413.13424759 237.42333191 413.13571167 239.3536377 C413.13639375 242.02697138 413.13503529 244.70021437 413.13037109 247.37353516 C413.12467381 250.80706691 413.12795301 254.2405205 413.13394356 257.67404938 C413.13841762 260.93895243 413.13528883 264.20384593 413.1328125 267.46875 C413.13483673 268.70725708 413.13686096 269.94576416 413.13894653 271.22180176 C413.13579437 272.3596814 413.13264221 273.49756104 413.12939453 274.66992188 C413.12820114 276.18096497 413.12820114 276.18096497 413.12698364 277.72253418 C413 280 413 280 412 281 C410.41580847 281.09858476 408.82724566 281.12798738 407.23999023 281.12939453 C406.2248082 281.13254669 405.20962616 281.13569885 404.16368103 281.13894653 C402.50291283 281.13591019 402.50291283 281.13591019 400.80859375 281.1328125 C399.10788475 281.13424759 399.10788475 281.13424759 397.37281799 281.13571167 C394.9642837 281.13639408 392.55574759 281.13453561 390.1472168 281.13037109 C386.47765904 281.12505814 382.80822562 281.1302961 379.13867188 281.13671875 C376.7994789 281.1360573 374.460286 281.13477476 372.12109375 281.1328125 C371.02808456 281.13483673 369.93507538 281.13686096 368.8089447 281.13894653 C353.09118076 281.09118076 353.09118076 281.09118076 351 279 C350.91368126 277.65732587 350.89293527 276.31025678 350.90234375 274.96484375 C350.90556641 274.15595703 350.90878906 273.34707031 350.91210938 272.51367188 C350.92048828 271.66353516 350.92886719 270.81339844 350.9375 269.9375 C350.94201172 269.08349609 350.94652344 268.22949219 350.95117188 267.34960938 C350.96299627 265.23304337 350.98093231 263.11651315 351 261 C349.85701195 261.00333092 349.85701195 261.00333092 348.69093323 261.00672913 C341.52448288 261.02673157 334.35804599 261.04197388 327.19157505 261.05181217 C323.50685502 261.05704008 319.82215797 261.06413605 316.13745117 261.07543945 C312.58429169 261.08627162 309.03115437 261.09227753 305.47797966 261.09487724 C304.11954334 261.0967309 302.76110829 261.10035038 301.40268135 261.10573006 C299.50617777 261.11294475 297.60965207 261.11340809 295.71313477 261.11352539 C294.63169693 261.115746 293.55025909 261.11796661 292.43605042 261.12025452 C290 261 290 261 289 260 C288.90227712 257.50847885 288.87003968 255.04468924 288.87974548 252.55271912 C288.87888947 251.76565079 288.87803345 250.97858246 288.87715149 250.16766357 C288.87548617 247.50164582 288.88103626 244.83568982 288.88647461 242.16967773 C288.8867807 240.23718041 288.88664787 238.30468298 288.88610935 236.37218571 C288.88588278 231.17805874 288.8916956 225.98395462 288.89871979 220.78983307 C288.90439769 215.92307968 288.90468198 211.05633196 288.90539551 206.1895752 C288.91065129 191.93888041 288.92461232 177.68818992 288.9375 163.4375 C288.958125 131.613125 288.97875 99.78875 289 67 C220.03 67 151.06 67 80 67 C80 128.38 80 189.76 80 253 C74.02085091 253.59791491 68.57550132 254.1254015 62.65429688 254.12939453 C61.66206116 254.13202301 61.66206116 254.13202301 60.64978027 254.13470459 C58.50607529 254.13903663 56.36245553 254.13621896 54.21875 254.1328125 C52.71325668 254.13348739 51.20776346 254.13445895 49.70227051 254.13571167 C46.56908109 254.13717633 43.43592042 254.13507159 40.30273438 254.13037109 C36.28327945 254.12463487 32.26389075 254.12798497 28.24443817 254.13394356 C25.1458689 254.13754897 22.04731547 254.13641136 18.94874573 254.13381577 C17.46554049 254.13314848 15.98233381 254.13396802 14.49913025 254.13629532 C12.43622991 254.13882576 10.37343902 254.13497755 8.31054688 254.12939453 C7.13713745 254.12859894 5.96372803 254.12780334 4.75476074 254.12698364 C2 254 2 254 0 253 C0 169.51 0 86.02 0 0 Z M1 1 C1 83.83 1 166.66 1 252 C26.74 252 52.48 252 79 252 C79 190.62 79 129.24 79 66 C148.63 66 218.26 66 290 66 C290 129.69 290 193.38 290 259 C310.46 259.33 330.92 259.66 352 260 C352.33 266.27 352.66 272.54 353 279 C372.47 279 391.94 279 412 279 C412 260.85 412 242.7 412 224 C392.53 224 373.06 224 353 224 C353 227.96 353 231.92 353 236 C341.45 236 329.9 236 318 236 C318 171.65 318 107.3 318 41 C229.56 41 141.12 41 50 41 C50 102.71 50 164.42 50 228 C43.4 228 36.8 228 30 228 C30 160.02 30 92.04 30 22 C118.77 22 207.54 22 299 22 C294.62627439 16.88306599 294.62627439 16.88306599 290 12 C289.01 12 288.02 12 287 12 C287 11.01 287 10.02 287 9 C285.27112303 7.12710876 285.27112303 7.12710876 283.0625 5.375 C282.33160156 4.76398437 281.60070312 4.15296875 280.84765625 3.5234375 C279.93306641 2.76933594 279.93306641 2.76933594 279 2 C278.67 1.67 278.34 1.34 278 1 C276.5195715 0.90324473 275.03452727 0.87628238 273.55094051 0.87695217 C272.58404889 0.87496112 271.61715727 0.87297007 270.6209659 0.87091869 C269.00864614 0.87528795 269.00864614 0.87528795 267.36375427 0.87974548 C266.23175584 0.87889106 265.09975742 0.87803663 263.933456 0.87715632 C260.10853507 0.87549822 256.28365719 0.88102826 252.45874023 0.88647461 C249.72956311 0.887312 247.00038685 0.88664296 244.27120972 0.8860321 C238.37913498 0.88550667 232.48707128 0.88865549 226.59499931 0.89426994 C218.07595678 0.90238233 209.55691961 0.90499989 201.03787363 0.90625793 C187.21771025 0.90844887 173.39755276 0.91511007 159.57739258 0.92456055 C146.14900746 0.9337336 132.72062394 0.94080349 119.29223633 0.94506836 C118.03886582 0.94547036 118.03886582 0.94547036 116.76017469 0.94588047 C110.22580102 0.94795978 103.69142731 0.94991675 97.15705359 0.95183504 C65.10469699 0.96127597 33.05235512 0.98139256 1 1 Z " fill="#CBD4E9" transform="translate(100,42)"/>
<path d="M0 0 C9.9 0 19.8 0 30 0 C30 23.1 30 46.2 30 70 C26.63738324 70 26.0097416 69.55640829 23.375 67.65625 C22.31345703 66.89828125 22.31345703 66.89828125 21.23046875 66.125 C20.49441406 65.58875 19.75835937 65.0525 19 64.5 C18.29488281 63.9946875 17.58976562 63.489375 16.86328125 62.96875 C15.3743891 61.89952763 13.90389089 60.80434859 12.45019531 59.68774414 C10.00568858 57.89088902 10.00568858 57.89088902 7.01074219 56.68530273 C3.29805986 54.80470155 1.40876605 53.43286833 -1 50 C-2.90426307 41.90770168 -2.0712874 33.29665369 -1.75 25.0625 C-1.70336618 22.74683949 -1.6616477 20.43107445 -1.625 18.11523438 C-1.54210978 13.90371615 -1.44423225 9.69411168 -1.28808594 5.48461914 C-1.2571283 4.64048965 -1.22617065 3.79636017 -1.1942749 2.926651 C-1 1 -1 1 0 0 Z " fill="#405AA2" transform="translate(101,356)"/>
<path d="M0 0 C1.70209877 0.00333092 1.70209877 0.00333092 3.43858337 0.00672913 C4.71983597 0.00680466 6.00108856 0.00688019 7.32116699 0.00695801 C8.73001646 0.01206542 10.13886554 0.01728143 11.54771423 0.02259827 C12.98118033 0.02446249 14.41464706 0.02588637 15.84811401 0.02688599 C19.62765755 0.03071079 23.40716288 0.04054075 27.18669128 0.05158997 C31.04075097 0.06180489 34.8948168 0.06638378 38.74888611 0.07142639 C46.31596085 0.08216306 53.88300407 0.09923903 61.45005798 0.12025452 C62.48595998 5.17027673 62.55257471 9.99441841 62.45005798 15.12025452 C63.73822922 15.11803391 65.02640045 15.11581329 66.35360718 15.11352539 C78.46468255 15.09329633 90.57575452 15.07828352 102.68684292 15.06844234 C108.91399271 15.06321292 115.14112891 15.05611419 121.36827087 15.04481506 C127.37232663 15.0339883 133.37636928 15.02797813 139.38043404 15.02537727 C141.67667408 15.02352264 143.97291337 15.01990131 146.26914787 15.01452446 C149.47326612 15.00731684 152.67732948 15.00626346 155.88145447 15.00672913 C157.32075066 15.00133621 157.32075066 15.00133621 158.78912354 14.99583435 C159.65715607 14.99720901 160.5251886 14.99858368 161.41952515 15 C162.17816077 14.99907821 162.9367964 14.99815641 163.71842098 14.99720669 C165.45005798 15.12025452 165.45005798 15.12025452 166.45005798 16.12025452 C166.45005798 43.84025452 166.45005798 71.56025452 166.45005798 100.12025452 C235.09005798 100.12025452 303.73005798 100.12025452 374.45005798 100.12025452 C374.45005798 79.00025452 374.45005798 57.88025452 374.45005798 36.12025452 C374.78005798 31.50025452 375.11005798 26.88025452 375.45005798 22.12025452 C378.20360758 20.74347972 380.43846208 20.99055763 383.51646423 20.98744202 C384.72367126 20.98615295 385.9308783 20.98486389 387.17466736 20.98353577 C388.44117126 20.98740295 389.70767517 20.99127014 391.01255798 20.99525452 C392.28292908 20.99138733 393.55330017 20.98752014 394.86216736 20.98353577 C396.67104431 20.98546936 396.67104431 20.98546936 398.51646423 20.98744202 C399.62965027 20.98856995 400.7428363 20.98969788 401.88975525 20.99085999 C404.45005798 21.12025452 404.45005798 21.12025452 405.45005798 22.12025452 C405.55961934 23.48129344 405.60127471 24.84788432 405.61500549 26.21325684 C405.62623947 27.09522736 405.63747345 27.97719788 405.64904785 28.88589478 C405.65637436 29.86098495 405.66370087 30.83607513 405.67124939 31.8407135 C405.68275528 32.86177185 405.69426117 33.8828302 405.70611572 34.93482971 C405.74296294 38.32863805 405.77251022 41.72246535 405.80162048 45.11634827 C405.82472062 47.46425658 405.84811079 49.81216206 405.8717804 52.1600647 C405.92031425 57.08890904 405.96523453 62.01777007 406.00767517 66.94667053 C406.06248218 73.27682928 406.1263074 79.606859 406.19285011 85.93690395 C406.24283789 90.78801322 406.28800046 95.63915813 406.33169174 100.49032784 C406.35331542 102.82482917 406.37647128 105.15931681 406.40115738 107.49378777 C406.43490496 110.75263759 406.46216171 114.0114776 406.48765564 117.270401 C406.49903061 118.24346695 406.51040558 119.2165329 406.52212524 120.21908569 C406.52771957 121.10387604 406.5333139 121.98866638 406.53907776 122.90026855 C406.54607508 123.67143226 406.5530724 124.44259596 406.56028175 125.23712826 C406.45005798 127.12025452 406.45005798 127.12025452 405.45005798 129.12025452 C316.35005798 129.12025452 227.25005798 129.12025452 135.45005798 129.12025452 C135.45005798 100.41025452 135.45005798 71.70025452 135.45005798 42.12025452 C111.36005798 42.12025452 87.27005798 42.12025452 62.45005798 42.12025452 C62.45005798 47.40025452 62.45005798 52.68025452 62.45005798 58.12025452 C61.45005798 59.12025452 61.45005798 59.12025452 58.8621521 59.24050903 C57.70965469 59.23828842 56.55715729 59.23606781 55.36973572 59.23377991 C53.4178257 59.23366661 53.4178257 59.23366661 51.42648315 59.23355103 C49.99553897 59.2284436 48.56459516 59.2232276 47.13365173 59.21791077 C45.67776538 59.21604655 44.22187841 59.21462266 42.76599121 59.21362305 C38.92726419 59.20979817 35.08857479 59.19996816 31.24986267 59.18891907 C27.33547983 59.17870429 23.42109093 59.17412529 19.50669861 59.16908264 C11.82113455 59.15834585 4.13560153 59.14126981 -3.54994202 59.12025452 C-3.57307053 51.57527219 -3.5908597 44.03029351 -3.60175419 36.48528385 C-3.6069819 32.98216567 -3.61407752 29.47907167 -3.62538147 25.97596741 C-3.63828407 21.95244611 -3.64317113 17.92895038 -3.64759827 13.90541077 C-3.65534019 12.0101339 -3.65534019 12.0101339 -3.66323853 10.0765686 C-3.66331406 8.91544052 -3.66338959 7.75431244 -3.66346741 6.55799866 C-3.66679832 5.01578392 -3.66679832 5.01578392 -3.67019653 3.44241333 C-3.50070295 0.16943009 -3.28932572 0.15512363 0 0 Z M-1.54994202 2.12025452 C-1.54994202 20.60025452 -1.54994202 39.08025452 -1.54994202 58.12025452 C18.91005798 58.12025452 39.37005798 58.12025452 60.45005798 58.12025452 C60.45005798 52.51025452 60.45005798 46.90025452 60.45005798 41.12025452 C85.53005798 41.12025452 110.61005798 41.12025452 136.45005798 41.12025452 C136.45005798 69.83025452 136.45005798 98.54025452 136.45005798 128.12025452 C224.89005798 128.12025452 313.33005798 128.12025452 404.45005798 128.12025452 C404.45005798 93.47025452 404.45005798 58.82025452 404.45005798 23.12025452 C395.21005798 23.12025452 385.97005798 23.12025452 376.45005798 23.12025452 C376.45005798 49.19025452 376.45005798 75.26025452 376.45005798 102.12025452 C306.82005798 102.12025452 237.19005798 102.12025452 165.45005798 102.12025452 C165.45005798 74.07025452 165.45005798 46.02025452 165.45005798 17.12025452 C130.80005798 17.12025452 96.15005798 17.12025452 60.45005798 17.12025452 C60.45005798 12.17025452 60.45005798 7.22025452 60.45005798 2.12025452 C39.99005798 2.12025452 19.53005798 2.12025452 -1.54994202 2.12025452 Z " fill="#D5DCF2" transform="translate(13.549942016601563,297.87974548339844)"/>
<path d="M0 0 C92.07 0 184.14 0 279 0 C279 0.66 279 1.32 279 2 C187.59 2 96.18 2 2 2 C2.33 89.78 2.66 177.56 3 268 C12.1541875 268.45014619 12.1541875 268.45014619 21 267 C21 185.82 21 104.64 21 21 C21.66 21 22.32 21 23 21 C23 103.17 23 185.34 23 270 C15.41 270 7.82 270 0 270 C0 180.9 0 91.8 0 0 Z " fill="#3B508C" transform="translate(59,7)"/>
<path d="M0 0 C3.21524305 1.40844718 5.32183868 3.10344786 7.75 5.625 C8.36359375 6.25664063 8.9771875 6.88828125 9.609375 7.5390625 C10.06828125 8.02117188 10.5271875 8.50328125 11 9 C10.67 9.99 10.34 10.98 10 12 C-78.77 12 -167.54 12 -259 12 C-259 78.66 -259 145.32 -259 214 C-253.06 214 -247.12 214 -241 214 C-241 152.62 -241 91.24 -241 28 C-240.67 28 -240.34 28 -240 28 C-240 90.04 -240 152.08 -240 216 C-246.6 216 -253.2 216 -260 216 C-260 148.02 -260 80.04 -260 10 C-171.56 9.67 -83.12 9.34 8 9 C4.04 5.04 4.04 5.04 0 1 C0 0.67 0 0.34 0 0 Z " fill="#C8D0E8" transform="translate(390,54)"/>
<path d="M0 0 C0.33 0 0.66 0 1 0 C1 27.72 1 55.44 1 84 C69.64 84 138.28 84 209 84 C209 62.88 209 41.76 209 20 C209.33 15.38 209.66 10.76 210 6 C212.7535496 4.6232252 214.98840409 4.87030311 218.06640625 4.8671875 C219.27361328 4.86589844 220.48082031 4.86460937 221.72460938 4.86328125 C223.62436523 4.86908203 223.62436523 4.86908203 225.5625 4.875 C226.83287109 4.87113281 228.10324219 4.86726563 229.41210938 4.86328125 C231.22098633 4.86521484 231.22098633 4.86521484 233.06640625 4.8671875 C234.17959229 4.86831543 235.29277832 4.86944336 236.43969727 4.87060547 C239 5 239 5 240 6 C240.09533653 9.1050725 240.12551126 12.18786458 240.11352539 15.29321289 C240.11367142 16.26871597 240.11381744 17.24421906 240.1139679 18.24928284 C240.11326833 21.49042953 240.10547391 24.73151954 240.09765625 27.97265625 C240.09579222 30.21325143 240.09436825 32.45384702 240.09336853 34.69444275 C240.08954213 40.6045951 240.0797108 46.51472305 240.06866455 52.42486572 C240.05845306 58.45055817 240.05387147 64.47625453 240.04882812 70.50195312 C240.03808864 82.33464616 240.02101076 94.16732106 240 106 C239.67 106 239.34 106 239 106 C239 73.33 239 40.66 239 7 C229.76 7 220.52 7 211 7 C211 33.07 211 59.14 211 86 C141.37 86 71.74 86 0 86 C0 57.62 0 29.24 0 0 Z " fill="#D8DEF0" transform="translate(179,314)"/>
<path d="M0 0 C4.32439848 -0.09206289 8.64537132 -0.17161666 12.9699707 -0.21972656 C14.43948921 -0.23978825 15.90892841 -0.26704478 17.37817383 -0.30175781 C19.49580487 -0.35052141 21.61237687 -0.37302161 23.73046875 -0.390625 C25.00301514 -0.41157227 26.27556152 -0.43251953 27.58666992 -0.45410156 C31.57731488 0.07680464 33.17915793 1.18928487 36 4 C37.42662219 6.85324437 37.31033868 8.83454549 37 12 C35.20006226 14.69990662 33.916227 16.5418865 31 18 C28.67583704 18.08586809 26.34916693 18.10711043 24.0234375 18.09765625 C23.33819 18.0962413 22.6529425 18.09482635 21.94692993 18.09336853 C19.75624239 18.08776675 17.5656567 18.07521406 15.375 18.0625 C13.89062648 18.05748522 12.40625135 18.05292228 10.921875 18.04882812 C7.2811791 18.03864721 3.64070369 18.01907237 0 18 C0 12.06 0 6.12 0 0 Z " fill="#284496" transform="translate(273,227)"/>
<path d="M0 0 C0.33 0 0.66 0 1 0 C1 63.69 1 127.38 1 193 C21.46 193 41.92 193 63 193 C67.71993409 197.71993409 64 206.3250052 64 213 C83.47 213 102.94 213 123 213 C123 194.52 123 176.04 123 157 C123.33 157 123.66 157 124 157 C124.02312883 164.41459942 124.04091785 171.82919111 124.05181217 179.24381924 C124.05703982 182.68640348 124.06413531 186.12896312 124.07543945 189.5715332 C124.08834235 193.52555043 124.09322918 197.47955756 124.09765625 201.43359375 C124.10281754 202.67523788 124.10797882 203.91688202 124.11329651 205.19615173 C124.11337204 206.33725906 124.11344757 207.47836639 124.11352539 208.65405273 C124.115746 209.664431 124.11796661 210.67480927 124.12025452 211.71580505 C124 214 124 214 123 215 C121.41580847 215.09858476 119.82724566 215.12798738 118.23999023 215.12939453 C117.2248082 215.13254669 116.20962616 215.13569885 115.16368103 215.13894653 C114.05650223 215.1369223 112.94932343 215.13489807 111.80859375 215.1328125 C110.67478775 215.13376923 109.54098175 215.13472595 108.37281799 215.13571167 C105.9642837 215.13639408 103.55574759 215.13453561 101.1472168 215.13037109 C97.47765904 215.12505814 93.80822562 215.1302961 90.13867188 215.13671875 C87.7994789 215.1360573 85.460286 215.13477476 83.12109375 215.1328125 C82.02808456 215.13483673 80.93507538 215.13686096 79.8089447 215.13894653 C64.09118076 215.09118076 64.09118076 215.09118076 62 213 C61.91368126 211.65732587 61.89293527 210.31025678 61.90234375 208.96484375 C61.90556641 208.15595703 61.90878906 207.34707031 61.91210938 206.51367188 C61.92467773 205.2384668 61.92467773 205.2384668 61.9375 203.9375 C61.94201172 203.08349609 61.94652344 202.22949219 61.95117188 201.34960938 C61.96299627 199.23304337 61.98093231 197.11651315 62 195 C61.23800797 195.00222061 60.47601593 195.00444122 59.69093323 195.00672913 C52.52448288 195.02673157 45.35804599 195.04197388 38.19157505 195.05181217 C34.50685502 195.05704008 30.82215797 195.06413605 27.13745117 195.07543945 C23.58429169 195.08627162 20.03115437 195.09227753 16.47797966 195.09487724 C15.11954334 195.0967309 13.76110829 195.10035038 12.40268135 195.10573006 C10.50617777 195.11294475 8.60965207 195.11340809 6.71313477 195.11352539 C5.09097801 195.11685631 5.09097801 195.11685631 3.43605042 195.12025452 C1 195 1 195 0 194 C-0.09773112 191.49586483 -0.12995681 189.01933809 -0.12025452 186.51475525 C-0.12110894 185.72169167 -0.12196337 184.92862808 -0.12284368 184.11153227 C-0.1245009 181.43362604 -0.11897319 178.75578139 -0.11352539 176.07788086 C-0.11324354 174.16642763 -0.1134012 172.25497429 -0.1139679 170.34352112 C-0.11425597 165.13712541 -0.10835761 159.93075252 -0.10139394 154.72436213 C-0.09516208 149.28975841 -0.09455674 143.85515423 -0.09336853 138.42054749 C-0.09025472 128.12161242 -0.08204066 117.82268792 -0.07201904 107.52375752 C-0.06085945 95.80207243 -0.05534784 84.08038685 -0.05032361 72.35869777 C-0.03985808 48.23912598 -0.02225768 24.11956358 0 0 Z " fill="#C1CBE6" transform="translate(389,108)"/>
<path d="M0 0 C2.02054804 1.64169528 4.02043058 3.30911778 6 5 C6 5.33 6 5.66 6 6 C-127.155 6.495 -127.155 6.495 -263 7 C-263.33 74.32 -263.66 141.64 -264 211 C-264.33 211 -264.66 211 -265 211 C-265.17714517 184.45358395 -265.34282742 157.90711793 -265.49477577 131.36054516 C-265.56559304 119.03516299 -265.6401944 106.70982521 -265.72363281 94.38452148 C-265.7963284 83.64471382 -265.86199673 72.90489041 -265.91914403 62.16498834 C-265.9496647 56.47566274 -265.98376008 50.78640818 -266.02626419 45.09715843 C-266.06612759 39.74653399 -266.09662257 34.3959394 -266.11981392 29.04521751 C-266.13001552 27.07752364 -266.1436919 25.10984436 -266.16103554 23.14220047 C-266.18413851 20.46321562 -266.19493156 17.78445942 -266.20254517 15.10539246 C-266.2122618 14.32037753 -266.22197843 13.5353626 -266.2319895 12.72655934 C-266.22934925 8.9327631 -266.15884207 7.2382631 -264 4 C-262.05882728 3.63381654 -262.05882728 3.63381654 -259.6309185 3.64647388 C-258.24552071 3.64273926 -258.24552071 3.64273926 -256.83213508 3.63892919 C-255.30005808 3.6578734 -255.30005808 3.6578734 -253.73703003 3.67720032 C-252.11738002 3.67948073 -252.11738002 3.67948073 -250.46500981 3.68180722 C-246.82266089 3.69062371 -243.18080423 3.72103271 -239.53857422 3.7512207 C-236.93733206 3.76192165 -234.33608417 3.77130044 -231.73483276 3.77944946 C-226.12207957 3.79913055 -220.50947309 3.8298508 -214.89681625 3.86800575 C-206.78180942 3.92315587 -198.66679078 3.96175557 -190.55167307 3.996277 C-177.38642616 4.05273274 -164.22128612 4.12262928 -151.05615234 4.20092773 C-138.26516622 4.27697231 -125.47417141 4.34671819 -112.68310547 4.40795898 C-111.89506408 4.41173415 -111.1070227 4.41550932 -110.29510127 4.41939888 C-106.34184822 4.43829824 -102.38859458 4.4570734 -98.43534064 4.47578681 C-65.62344675 4.6312683 -32.81170399 4.80854149 0 5 C0 3.35 0 1.7 0 0 Z " fill="#2A4184" transform="translate(393,58)"/>
<path d="M0 0 C20.79 0 41.58 0 63 0 C64 5 64 5 64 14 C97.99 14 131.98 14 167 14 C167 14.66 167 15.32 167 16 C132.35 16 97.7 16 62 16 C62 11.05 62 6.1 62 1 C41.54 1 21.08 1 0 1 C0 0.67 0 0.34 0 0 Z " fill="#96A3CA" transform="translate(12,299)"/>
<path d="M0 0 C3.21524305 1.40844718 5.32183868 3.10344786 7.75 5.625 C8.36359375 6.25664063 8.9771875 6.88828125 9.609375 7.5390625 C10.06828125 8.02117188 10.5271875 8.50328125 11 9 C10.67 9.99 10.34 10.98 10 12 C-78.77 12 -167.54 12 -259 12 C-259 11.67 -259 11.34 -259 11 C-170.89 10.67 -82.78 10.34 8 10 C6.02 7.69 4.04 5.38 2 3 C1.34 2.01 0.68 1.02 0 0 Z " fill="#FBFCFD" transform="translate(390,54)"/>
<path d="M0 0 C4.32439848 -0.09206289 8.64537132 -0.17161666 12.9699707 -0.21972656 C14.43948921 -0.23978825 15.90892841 -0.26704478 17.37817383 -0.30175781 C19.49580487 -0.35052141 21.61237687 -0.37302161 23.73046875 -0.390625 C25.00301514 -0.41157227 26.27556152 -0.43251953 27.58666992 -0.45410156 C31.57731488 0.07680464 33.17915793 1.18928487 36 4 C37.42662219 6.85324437 37.31033868 8.83454549 37 12 C35.20006226 14.69990662 33.916227 16.5418865 31 18 C28.67583704 18.08586809 26.34916693 18.10711043 24.0234375 18.09765625 C23.33819 18.0962413 22.6529425 18.09482635 21.94692993 18.09336853 C19.75624239 18.08776675 17.5656567 18.07521406 15.375 18.0625 C13.89062648 18.05748522 12.40625135 18.05292228 10.921875 18.04882812 C7.2811791 18.03864721 3.64070369 18.01907237 0 18 C0 12.06 0 6.12 0 0 Z M3 3 C1.67770811 5.64458379 1.90322806 7.67761301 1.9375 10.625 C1.94652344 11.62789062 1.95554687 12.63078125 1.96484375 13.6640625 C1.97644531 14.43492187 1.98804688 15.20578125 2 16 C6.21749219 16.07419134 10.43463811 16.1286204 14.65258789 16.16479492 C16.08722552 16.17987589 17.52181708 16.2003438 18.95629883 16.22631836 C21.01915859 16.26273437 23.08140858 16.27973243 25.14453125 16.29296875 C26.38565674 16.3086792 27.62678223 16.32438965 28.90551758 16.34057617 C31.97195284 16.26230346 31.97195284 16.26230346 33.91015625 14.609375 C35.30958854 12.54282983 35.30909743 11.28498112 35.1875 8.8125 C35.125625 7.554375 35.06375 6.29625 35 5 C33.35 5 31.7 5 30 5 C30 4.34 30 3.68 30 3 C21.09 3 12.18 3 3 3 Z " fill="#8F9FC6" transform="translate(273,227)"/>
<path d="M0 0 C0.33 0 0.66 0 1 0 C1 36.63 1 73.26 1 111 C24.22912376 111.86119647 24.22912376 111.86119647 47 109 C47 110.32 47 111.64 47 113 C31.49 113 15.98 113 0 113 C0 75.71 0 38.42 0 0 Z " fill="#20418F" transform="translate(241,197)"/>
<path d="M0 0 C17.16 0 34.32 0 52 0 C52 0.33 52 0.66 52 1 C40.78 1 29.56 1 18 1 C18 1.99 18 2.98 18 4 C12.06 4 6.12 4 0 4 C0 2.68 0 1.36 0 0 Z " fill="#263F87" transform="translate(256,262)"/>
<path d="M0 0 C4.88322046 5.58082338 6.35735542 11.75784909 6.203125 19.01953125 C6 21 6 21 5 24 C4.01 24.33 3.02 24.66 2 25 C0.66606585 26.60049987 0.66606585 26.60049987 -0.5 28.5 C-2.66666667 31.88888889 -2.66666667 31.88888889 -6 33 C-6 32.34 -6 31.68 -6 31 C-5.236875 30.34 -4.47375 29.68 -3.6875 29 C0.02355925 25.38409611 1.21759912 21.02870386 2 16 C1.9853971 10.54581498 1.10924512 5.32628908 0 0 Z " fill="#9BA9CD" transform="translate(323,223)"/>
<path d="M0 0 C0.33 0 0.66 0 1 0 C1 17.16 1 34.32 1 52 C0.01 51.67 -0.98 51.34 -2 51 C-1.93148331 50.39350616 -1.86296661 49.78701233 -1.79237366 49.16213989 C-1.14386293 43.1181579 -0.80372772 37.13030285 -0.68359375 31.0546875 C-0.66281265 30.15879913 -0.64203156 29.26291077 -0.62062073 28.33987427 C-0.55598643 25.51831658 -0.49664707 22.69667749 -0.4375 19.875 C-0.39423256 17.94530457 -0.35061587 16.01561693 -0.30664062 14.0859375 C-0.20039536 9.39070533 -0.09889388 4.69539252 0 0 Z " fill="#244289" transform="translate(254,210)"/>
<path d="M0 0 C0.495 1.98 0.495 1.98 1 4 C-14.51 4 -30.02 4 -46 4 C-45.67 3.34 -45.34 2.68 -45 2 C-43.32828735 2.01571045 -43.32828735 2.01571045 -41.62280273 2.03173828 C-37.46495815 2.0680979 -33.30712747 2.09095832 -29.14916992 2.10986328 C-27.35389844 2.1198846 -25.55864312 2.13350533 -23.76342773 2.15087891 C-21.17427565 2.17529809 -18.58534049 2.18652198 -15.99609375 2.1953125 C-15.20101913 2.20563507 -14.40594452 2.21595764 -13.58677673 2.22659302 C-8.67537248 2.2275689 -4.6605353 1.56706771 0 0 Z " fill="#2C4181" transform="translate(287,306)"/>
<path d="M0 0 C0 3 0 3 -1.7578125 4.9375 C-10.18569464 12.28060523 -10.18569464 12.28060523 -15 14 C-15.99 13.67 -16.98 13.34 -18 13 C-17.0409375 12.5978125 -17.0409375 12.5978125 -16.0625 12.1875 C-13.66868314 11.11332248 -13.66868314 11.11332248 -13 8 C-12.34 7.67 -11.68 7.34 -11 7 C-10.27306096 5.02111039 -9.60183749 3.02045442 -9 1 C-8.67 1.99 -8.34 2.98 -8 4 C-7.34 4.33 -6.68 4.66 -6 5 C-2.90243756 2.61149897 -2.90243756 2.61149897 0 0 Z " fill="#8A9AC8" transform="translate(334,261)"/>
<path d="M0 0 C0 4.95 0 9.9 0 15 C-1.32 14.01 -2.64 13.02 -4 12 C-3.67 11.67 -3.34 11.34 -3 11 C-3.99 10.34 -4.98 9.68 -6 9 C-6.33 8.01 -6.66 7.02 -7 6 C-6.01 5.34 -5.02 4.68 -4 4 C-3.67 3.01 -3.34 2.02 -3 1 C-1 0 -1 0 0 0 Z " fill="#22408E" transform="translate(129,409)"/>
<path d="M0 0 C3.92612596 -0.57256004 5.91988086 -0.74950876 9.24609375 1.55859375 C11.23043203 3.31655476 13.14261973 5.10884918 15 7 C14.34 7.66 13.68 8.32 13 9 C12.01 8.34 11.02 7.68 10 7 C10 6.34 10 5.68 10 5 C9.360625 4.87625 8.72125 4.7525 8.0625 4.625 C7.381875 4.41875 6.70125 4.2125 6 4 C5.67 3.34 5.34 2.68 5 2 C2.47266765 1.34444881 2.47266765 1.34444881 0 1 C0 0.67 0 0.34 0 0 Z " fill="#364D90" transform="translate(372,44)"/>
<path d="M0 0 C0.33 0 0.66 0 1 0 C1.36170213 5.42553191 1.36170213 5.42553191 -0.0625 7.6875 C-3.03981788 9.70439276 -5.64825295 9.28491047 -9.1875 9.1875 C-10.45980469 9.16042969 -11.73210937 9.13335937 -13.04296875 9.10546875 C-14.01878906 9.07066406 -14.99460937 9.03585938 -16 9 C-16 8.67 -16 8.34 -16 8 C-9.565 7.505 -9.565 7.505 -3 7 C-2.01 4.69 -1.02 2.38 0 0 Z " fill="#2D4385" transform="translate(307,234)"/>
<path d="M0 0 C3.3125 -0.25 3.3125 -0.25 7 0 C9 1.8125 9 1.8125 10 4 C9.67 4.99 9.34 5.98 9 7 C7.4972763 6.02501855 5.99788037 5.04490611 4.5 4.0625 C3.6646875 3.51722656 2.829375 2.97195312 1.96875 2.41015625 C1.3190625 1.94480469 0.669375 1.47945312 0 1 C0 0.67 0 0.34 0 0 Z " fill="#91A0C7" transform="translate(311,213)"/>
<path d="M0 0 C4.06789143 2.08891722 5.883169 3.96794095 8 8 C8.99 9.485 8.99 9.485 10 11 C8.68 11 7.36 11 6 11 C4 8 4 8 4 5 C3.34 5 2.68 5 2 5 C1.34 3.35 0.68 1.7 0 0 Z " fill="#697CAD" transform="translate(347,15)"/>
<path d="M0 0 C2.02054804 1.64169528 4.02043058 3.30911778 6 5 C6 5.33 6 5.66 6 6 C3.36 6 0.72 6 -2 6 C-1.34 5.67 -0.68 5.34 0 5 C0 3.35 0 1.7 0 0 Z " fill="#374C8F" transform="translate(393,58)"/>
<path d="M0 0 C2.31 0.66 4.62 1.32 7 2 C7 2.99 7 3.98 7 5 C3.34683329 3.75023244 2.21934164 3.32901247 0 0 Z " fill="#94A4C8" transform="translate(103,407)"/>
<path d="M0 0 C0.66 0 1.32 0 2 0 C2.33 1.32 2.66 2.64 3 4 C1.68 4.99 0.36 5.98 -1 7 C-1.04254356 5.00045254 -1.04080783 2.99958364 -1 1 C-0.67 0.67 -0.34 0.34 0 0 Z " fill="#2E468A" transform="translate(328,261)"/>
</svg>
